Coordinates
version=1
nRows=20
nColumns=38
inDegrees=no

Units are S.I. units (second, meters, Newtons, ...)
If the header above contains a line with 'inDegrees', this indicates whether rotational values are in degrees (yes) or radians (no).

endheader
time	pelvis_tilt	pelvis_list	pelvis_rotation	pelvis_tx	pelvis_ty	pelvis_tz	hip_flexion_r	hip_adduction_r	hip_rotation_r	knee_angle_r	ankle_angle_r	subtalar_angle_r	mtp_angle_r	hip_flexion_l	hip_adduction_l	hip_rotation_l	knee_angle_l	ankle_angle_l	subtalar_angle_l	mtp_angle_l	lumbar_extension	lumbar_bending	lumbar_rotation	arm_flex_r	arm_add_r	arm_rot_r	elbow_flex_r	pro_sup_r	wrist_flex_r	wrist_dev_r	arm_flex_l	arm_add_l	arm_rot_l	elbow_flex_l	pro_sup_l	wrist_flex_l	wrist_dev_l
2.06	-1.64305	1.46053	0.126913	0.906127	-0.402248	0.917605	0.448987	0.0960712	-0.233077	0.283018	-0.0378187	0	0	-0.207275	-0.195522	-0.265138	0.527351	0.279765	0	0	-0.0276302	0.110265	-0.20374	-0.262263	-0.0268638	-0.446363	0.339206	1.0668	0	0	-0.00367863	-0.364528	0.341947	0.748233	0.834092	0	0
2.07	-1.64208	1.45118	0.121165	0.904064	-0.413537	0.918621	0.449555	0.105715	-0.236986	0.305243	-0.0365617	0	0	-0.19778	-0.212541	-0.266357	0.565594	0.257619	0	0	-0.0265598	0.122632	-0.200424	-0.262642	-0.0296457	-0.453644	0.333955	1.07335	0	0	-0.00948147	-0.3589	0.332497	0.752755	0.834886	0	0
2.08	-1.64166	1.44302	0.115408	0.902094	-0.424747	0.919838	0.450882	0.113485	-0.241146	0.330505	-0.0306821	0	0	-0.184556	-0.228653	-0.267523	0.609479	0.230121	0	0	-0.0259156	0.13401	-0.197589	-0.26233	-0.0329071	-0.461024	0.327437	1.07957	0	0	-0.017141	-0.353173	0.32043	0.759938	0.836237	0	0
2.09	-1.65071	1.43672	0.119563	0.900227	-0.435827	0.921023	0.452802	0.119027	-0.245855	0.355012	-0.0281483	0	0	-0.165493	-0.242924	-0.265809	0.659125	0.196921	0	0	-0.0245155	0.143385	-0.195155	-0.254832	-0.0328006	-0.520574	0.308637	1.15537	0	0	-0.0264924	-0.347627	0.305999	0.771353	0.835476	0	0
2.1	-1.6465	1.43255	0.110259	0.898489	-0.446848	0.922414	0.448696	0.124253	-0.247321	0.371352	-0.0316145	0	0	-0.146989	-0.253434	-0.259641	0.70833	0.159536	0	0	-0.0251771	0.15058	-0.193483	-0.256349	-0.0360665	-0.520482	0.305248	1.15065	0	0	-0.0365577	-0.344416	0.298094	0.783912	0.824747	0	0
2.11	-1.65189	1.42903	0.110959	0.896703	-0.457653	0.923562	0.442879	0.130225	-0.245955	0.380666	-0.0370121	0	0	-0.123319	-0.262995	-0.25001	0.761631	0.120225	0	0	-0.0246222	0.156608	-0.192624	-0.259431	-0.0387411	-0.518639	0.305739	1.14283	0	0	-0.0475338	-0.342616	0.292764	0.796524	0.815135	0	0
2.12	-1.6687	1.42582	0.123144	0.894819	-0.468116	0.924336	0.436735	0.136998	-0.242331	0.38471	-0.0410914	0	0	-0.0942383	-0.272084	-0.23798	0.818652	0.0800504	0	0	-0.0226116	0.161827	-0.191973	-0.265826	-0.0408151	-0.509485	0.314423	1.12693	0	0	-0.0586576	-0.340971	0.286021	0.807516	0.820087	0	0
2.13	-1.69831	1.42061	0.148308	0.892886	-0.478212	0.92443	0.432309	0.146325	-0.239605	0.386094	-0.0427488	0	0	-0.0572613	-0.290776	-0.238573	0.885086	0.0388382	0	0	-0.0184093	0.168936	-0.189852	-0.272823	-0.0412122	-0.51926	0.326407	1.1373	0	0	-0.0676356	-0.34067	0.285018	0.819429	0.815114	0	0
2.14	-1.72195	1.41601	0.167037	0.890967	-0.488005	0.924525	0.426482	0.155706	-0.237013	0.386128	-0.0427461	0	0	-0.0213714	-0.304148	-0.230864	0.946745	-0.00248736	0	0	-0.0155342	0.175234	-0.186471	-0.280301	-0.041423	-0.525535	0.34131	1.14594	0	0	-0.0745416	-0.340404	0.285643	0.827823	0.812601	0	0
2.15	-1.73719	1.41163	0.17739	0.889181	-0.497517	0.924734	0.418923	0.165219	-0.233394	0.385147	-0.041713	0	0	0.0136943	-0.312731	-0.215319	1.00507	-0.0423046	0	0	-0.0140615	0.181126	-0.184356	-0.296216	-0.046994	-0.466301	0.372097	1.06436	0	0	-0.0812175	-0.339334	0.284283	0.834091	0.809384	0	0
2.16	-1.73649	1.40799	0.171543	0.887491	-0.506884	0.925282	0.408202	0.174794	-0.227022	0.38397	-0.0397874	0	0	0.0454332	-0.319267	-0.199236	1.05945	-0.0815636	0	0	-0.0160848	0.186712	-0.180308	-0.299872	-0.0478871	-0.47423	0.383287	1.07931	0	0	-0.0845984	-0.337203	0.283494	0.834697	0.813388	0	0
2.17	-1.72859	1.40435	0.158768	0.885914	-0.516199	0.926061	0.395976	0.184654	-0.218659	0.382992	-0.0369904	0	0	0.075583	-0.325135	-0.183392	1.10974	-0.123556	0	0	-0.0191532	0.192312	-0.17665	-0.30287	-0.0494008	-0.477876	0.393559	1.09057	0	0	-0.087385	-0.334084	0.281384	0.832771	0.820642	0	0
2.18	-1.71341	1.40174	0.138684	0.884411	-0.52549	0.927147	0.381667	0.193374	-0.209743	0.381978	-0.0325002	0	0	0.102842	-0.329329	-0.169187	1.15462	-0.16507	0	0	-0.023502	0.196866	-0.173414	-0.303939	-0.0516495	-0.478034	0.399465	1.09784	0	0	-0.0910049	-0.331013	0.28066	0.828847	0.826968	0	0
2.19	-1.69354	1.40059	0.113922	0.883	-0.53468	0.928496	0.365523	0.200095	-0.200777	0.380297	-0.0266433	0	0	0.127753	-0.331098	-0.156356	1.19575	-0.197365	0	0	-0.0290215	0.19968	-0.170365	-0.303138	-0.0541741	-0.477361	0.401343	1.10135	0	0	-0.0944757	-0.327876	0.280191	0.82383	0.831412	0	0
2.2	-1.67575	1.40081	0.0909075	0.881667	-0.543694	0.929969	0.348988	0.204737	-0.191715	0.377607	-0.0207182	0	0	0.152635	-0.330912	-0.145269	1.23612	-0.209019	0	0	-0.0345402	0.200722	-0.167139	-0.301415	-0.0564372	-0.478013	0.401202	1.10199	0	0	-0.0977866	-0.324599	0.279627	0.818122	0.834175	0	0
2.21	-1.66687	1.40457	0.0767687	0.880461	-0.552237	0.931672	0.334004	0.20482	-0.181972	0.374536	-0.016039	0	0	0.178395	-0.313506	-0.118111	1.27197	-0.201078	0	0	-0.0392798	0.1974	-0.164501	-0.297773	-0.0578737	-0.479246	0.398009	1.10162	0	0	-0.100641	-0.321229	0.278183	0.810616	0.836355	0	0
2.22	-1.66165	1.40655	0.0645626	0.87908	-0.560828	0.933163	0.318711	0.207355	-0.171172	0.369206	-0.0126262	0	0	0.204721	-0.311797	-0.111853	1.3072	-0.185721	0	0	-0.0426797	0.195827	-0.160496	-0.297557	-0.0615887	-0.461628	0.398192	1.0706	0	0	-0.104889	-0.317502	0.276697	0.804362	0.835908	0	0
2.23	-1.65854	1.40906	0.0534618	0.877644	-0.569301	0.93465	0.303077	0.209282	-0.160956	0.362497	-0.00957596	0	0	0.230161	-0.309828	-0.108415	1.33728	-0.166405	0	0	-0.0462082	0.1936	-0.155201	-0.296645	-0.0642214	-0.452544	0.396959	1.05663	0	0	-0.109567	-0.314284	0.276271	0.79989	0.83121	0	0
2.24	-1.65694	1.41212	0.0433398	0.876183	-0.57764	0.936119	0.286908	0.210508	-0.150648	0.354317	-0.00636138	0	0	0.254657	-0.307084	-0.106315	1.36196	-0.148919	0	0	-0.050108	0.191127	-0.147195	-0.290153	-0.0616338	-0.493643	0.386232	1.11683	0	0	-0.112102	-0.31217	0.282058	0.79431	0.819534	0	0
2.25	-1.65831	1.4153	0.0355378	0.874743	-0.58578	0.9375	0.271217	0.211398	-0.139657	0.345833	-0.00316117	0	0	0.279087	-0.304161	-0.105181	1.38181	-0.136028	0	0	-0.0534234	0.188635	-0.138779	-0.291326	-0.0627643	-0.492769	0.388311	1.11419	0	0	-0.114411	-0.309627	0.286553	0.787351	0.814948	0	0
